<?xml version="1.0" standalone="no"?>
<svg xmlns:xlink="http://www.w3.org/1999/xlink" id="wave" style="transform:rotate(180deg); transition: 0.3s" viewBox="0 0 1440 490" version="1.1" xmlns="http://www.w3.org/2000/svg"><defs><linearGradient id="sw-gradient-0" x1="0" x2="0" y1="1" y2="0"><stop stop-color="rgba(156, 181, 230, 1)" offset="0%"/><stop stop-color="rgba(37, 57, 97, 1)" offset="100%"/></linearGradient></defs><path style="transform:translate(0, 0px); opacity:1" fill="url(#sw-gradient-0)" d="M0,0L18.5,24.5C36.9,49,74,98,111,106.2C147.7,114,185,82,222,73.5C258.5,65,295,82,332,73.5C369.2,65,406,33,443,40.8C480,49,517,98,554,98C590.8,98,628,49,665,98C701.5,147,738,294,775,367.5C812.3,441,849,441,886,416.5C923.1,392,960,343,997,318.5C1033.8,294,1071,294,1108,261.3C1144.6,229,1182,163,1218,114.3C1255.4,65,1292,33,1329,40.8C1366.2,49,1403,98,1440,155.2C1476.9,212,1514,278,1551,302.2C1587.7,327,1625,310,1662,294C1698.5,278,1735,261,1772,212.3C1809.2,163,1846,82,1883,89.8C1920,98,1957,196,1994,269.5C2030.8,343,2068,392,2105,416.5C2141.5,441,2178,441,2215,424.7C2252.3,408,2289,376,2326,334.8C2363.1,294,2400,245,2437,220.5C2473.8,196,2511,196,2548,204.2C2584.6,212,2622,229,2640,236.8L2658.5,245L2658.5,490L2640,490C2621.5,490,2585,490,2548,490C2510.8,490,2474,490,2437,490C2400,490,2363,490,2326,490C2289.2,490,2252,490,2215,490C2178.5,490,2142,490,2105,490C2067.7,490,2031,490,1994,490C1956.9,490,1920,490,1883,490C1846.2,490,1809,490,1772,490C1735.4,490,1698,490,1662,490C1624.6,490,1588,490,1551,490C1513.8,490,1477,490,1440,490C1403.1,490,1366,490,1329,490C1292.3,490,1255,490,1218,490C1181.5,490,1145,490,1108,490C1070.8,490,1034,490,997,490C960,490,923,490,886,490C849.2,490,812,490,775,490C738.5,490,702,490,665,490C627.7,490,591,490,554,490C516.9,490,480,490,443,490C406.2,490,369,490,332,490C295.4,490,258,490,222,490C184.6,490,148,490,111,490C73.8,490,37,490,18,490L0,490Z"/></svg>